<svg width="157" height="106" viewBox="0 0 157 106" fill="none" xmlns="http://www.w3.org/2000/svg">
<g clip-path="url(#clip0_2_37)">
<rect x="0.359222" y="19.1067" width="153" height="48.2193" transform="rotate(-5.2684 0.359222 19.1067)" fill="#E5E5E5"/>
<g filter="url(#filter0_d_2_37)">
<path d="M18.157 49.6013L16.0005 26.2155L31.6317 24.7741L32.0768 29.6012L22.022 30.5283L22.4366 35.0243L31.8641 34.1549L32.3108 38.9994L22.8833 39.8687L23.2834 44.2078L33.3382 43.2806L33.7882 48.1599L18.157 49.6013ZM36.7786 47.8842L42.8746 38.7107L35.1862 30.6149L42.0695 29.9802L45.9725 34.1896L48.796 29.36L55.6096 28.7317L49.6533 38.0856L57.2368 45.9977L50.4232 46.626L46.3857 42.4817L43.6619 47.2495L36.7786 47.8842ZM69.8405 45.3979C68.5742 45.5147 67.4934 45.3566 66.5982 44.9236C65.703 44.4906 64.9902 43.748 64.4596 42.6956C63.9407 41.6421 63.6009 40.244 63.4402 38.5014L65.3048 38.3295C65.3476 38.7942 65.5187 39.1885 65.8181 39.5124C66.1174 39.8363 66.5027 40.0761 66.974 40.2318C67.4453 40.3875 67.9481 40.4407 68.4825 40.3914C69.0169 40.3422 69.5506 40.1582 70.0836 39.8396C70.6282 39.5199 71.0649 39.0461 71.3937 38.4183C71.734 37.7894 71.8592 36.987 71.7692 36.0111C71.6932 35.1863 71.4815 34.4794 71.1343 33.8905C70.7871 33.3015 70.3308 32.8633 69.7653 32.5756C69.2114 32.2869 68.5686 32.1763 67.8367 32.2438C67.2442 32.2984 66.7269 32.4692 66.2847 32.756C65.8425 33.0428 65.5086 33.4251 65.2832 33.9028C65.0683 34.3678 64.9888 34.9024 65.0445 35.5065L63.1799 35.6784C62.9999 33.7267 63.1346 32.1384 63.5841 30.9137C64.0451 29.6878 64.7104 28.7712 65.58 28.1638C66.4485 27.5448 67.3997 27.1876 68.4337 27.0922C69.8045 26.9658 71.1389 27.206 72.4367 27.8127C73.7346 28.4194 74.8296 29.3671 75.7217 30.6556C76.6254 31.9431 77.1667 33.5568 77.3456 35.4969C77.5234 37.4254 77.28 39.1057 76.6153 40.5378C75.9623 41.9688 75.03 43.1033 73.8185 43.9415C72.6187 44.7785 71.2926 45.264 69.8405 45.3979ZM61.1296 54.0392L58.7788 28.5449L63.327 28.1255L64.7681 32.5092L66.706 53.525L61.1296 54.0392ZM82.5526 43.6633L80.3351 19.6153L85.9114 19.1011L88.1289 43.1491L82.5526 43.6633ZM101.427 42.4853C99.8353 42.632 98.3415 42.4417 96.9455 41.9144C95.5601 41.3743 94.4049 40.4732 93.4802 39.2111C92.5659 37.9364 92.0134 36.265 91.8228 34.1971C91.6256 32.0595 91.86 30.2805 92.5257 28.86C93.203 27.4385 94.1744 26.3472 95.4399 25.5861C96.7159 24.8124 98.1497 24.3521 99.7412 24.2053C101.298 24.0618 102.763 24.2548 104.135 24.7843C105.507 25.3022 106.65 26.1985 107.564 27.4733C108.49 28.747 109.052 30.4527 109.249 32.5903C109.44 34.6581 109.196 36.4029 108.519 37.8244C107.852 39.2332 106.893 40.3293 105.641 41.1125C104.388 41.8841 102.984 42.3417 101.427 42.4853ZM100.769 37.6427C101.304 37.5934 101.808 37.4063 102.282 37.0814C102.767 36.7555 103.15 36.2691 103.43 35.6223C103.709 34.9639 103.802 34.1236 103.707 33.1012C103.561 31.5097 103.173 30.4148 102.543 29.8167C101.914 29.2187 101.199 28.9566 100.397 29.0305C99.8627 29.0798 99.3411 29.2685 98.8324 29.5966C98.3354 29.9236 97.942 30.4226 97.6524 31.0937C97.3734 31.7521 97.2831 32.6157 97.3817 33.6845C97.5242 35.2296 97.9211 36.2944 98.5725 36.8787C99.2355 37.4619 99.9678 37.7166 100.769 37.6427ZM114.512 40.7163L112.919 23.4471L118.496 22.9329L120.088 40.2021L114.512 40.7163ZM118.228 32.9925C118.013 30.6574 118.132 28.7132 118.587 27.1599C119.041 25.6066 119.688 24.4281 120.528 23.6242C121.367 22.8204 122.258 22.3751 123.199 22.2883C123.385 22.2712 123.572 22.2657 123.76 22.2718C123.947 22.2662 124.123 22.2734 124.289 22.2933L124.859 27.8996C124.565 27.8916 124.267 27.8956 123.963 27.9119C123.659 27.9165 123.374 27.9311 123.106 27.9558C122.293 28.0307 121.587 28.2482 120.987 28.6081C120.399 28.9669 119.962 29.4935 119.674 30.1878C119.398 30.8811 119.311 31.7795 119.413 32.8832L118.228 32.9925ZM136.234 39.2756C134.794 39.4085 133.406 39.1615 132.071 38.5348C130.736 37.908 129.61 36.9398 128.693 35.6302C127.787 34.3195 127.247 32.7174 127.072 30.8237C126.897 28.9301 127.137 27.2736 127.791 25.8542C128.444 24.4232 129.371 23.2892 130.571 22.4521C131.771 21.6151 133.097 21.1296 134.549 20.9957C135.989 20.8629 137.271 21.0376 138.393 21.5199C139.514 21.9906 140.445 22.6839 141.186 23.5998C141.938 24.5146 142.47 25.5786 142.781 26.7918C143.102 27.9924 143.178 29.2566 143.007 30.5845L131.593 31.637L131.333 28.814L138.669 28.1375L137.916 28.7342C137.913 28.3244 137.858 27.9136 137.75 27.5018C137.653 27.0889 137.496 26.7168 137.278 26.3854C137.059 26.0424 136.765 25.7824 136.397 25.6054C136.04 25.4158 135.594 25.3456 135.06 25.3949C134.467 25.4495 133.964 25.6424 133.549 25.9735C133.145 26.292 132.846 26.7355 132.652 27.304C132.469 27.8598 132.414 28.5269 132.486 29.3053L132.688 31.5009C132.755 32.2328 132.918 32.8563 133.177 33.3715C133.435 33.8866 133.782 34.2764 134.216 34.541C134.661 34.7928 135.197 34.8898 135.825 34.832C136.336 34.7849 136.773 34.6391 137.137 34.3946C137.502 34.1501 137.738 33.7944 137.847 33.3274L143.389 32.8164C143.313 33.9013 142.973 34.911 142.368 35.8455C141.774 36.7789 140.955 37.5516 139.91 38.1634C138.877 38.7742 137.652 39.145 136.234 39.2756Z" fill="#454444"/>
</g>
<rect opacity="0.7" x="18" y="57" width="110" height="45" fill="#A0A0A0"/>
<g filter="url(#filter1_d_2_37)">
<path d="M39.52 89.56C38.0267 89.56 36.6675 89.175 35.4425 88.405C34.2292 87.6233 33.2667 86.5383 32.555 85.15C31.8433 83.75 31.4875 82.1283 31.4875 80.285C31.4875 78.465 31.8258 76.8783 32.5025 75.525C33.1792 74.16 34.095 73.0983 35.25 72.34C36.405 71.5817 37.7 71.2025 39.135 71.2025C40.43 71.2025 41.5325 71.5117 42.4425 72.13C43.3525 72.7367 44.0408 73.6583 44.5075 74.895C44.9858 76.12 45.225 77.66 45.225 79.515H43.6675C43.6675 78.8617 43.5217 78.2958 43.23 77.8175C42.95 77.3275 42.5767 76.9483 42.11 76.68C41.6433 76.4117 41.1242 76.2775 40.5525 76.2775C39.8175 76.2775 39.1875 76.4525 38.6625 76.8025C38.1492 77.1525 37.7583 77.6308 37.49 78.2375C37.2217 78.8442 37.0875 79.5267 37.0875 80.285C37.0875 81.0783 37.2217 81.79 37.49 82.42C37.77 83.05 38.1667 83.5458 38.68 83.9075C39.1933 84.2692 39.7942 84.45 40.4825 84.45C41.0308 84.45 41.5442 84.2983 42.0225 83.995C42.5125 83.68 42.9092 83.2658 43.2125 82.7525C43.5158 82.2392 43.6675 81.6792 43.6675 81.0725H45.225C45.225 83.0208 44.9567 84.625 44.42 85.885C43.895 87.1333 43.195 88.0608 42.32 88.6675C41.4567 89.2625 40.5233 89.56 39.52 89.56ZM44.77 89L43.6675 84.5025V64.85H49.3375V89H44.77ZM66.5477 89L65.8302 84.3975V77.94C65.8302 77.0767 65.6727 76.4058 65.3577 75.9275C65.0427 75.4492 64.3718 75.21 63.3452 75.21C62.7385 75.21 62.2427 75.3033 61.8577 75.49C61.4843 75.665 61.2043 75.9042 61.0177 76.2075C60.8427 76.4992 60.7552 76.82 60.7552 77.17H54.7002C54.7002 75.8167 55.021 74.7025 55.6627 73.8275C56.3043 72.9408 57.2668 72.2817 58.5502 71.85C59.8335 71.4183 61.4318 71.2025 63.3452 71.2025C65.0135 71.2025 66.4485 71.4592 67.6502 71.9725C68.8635 72.4858 69.7968 73.2558 70.4502 74.2825C71.1035 75.3092 71.4302 76.5983 71.4302 78.15V89H66.5477ZM61.1227 89.56C59.5827 89.56 58.2818 89.3033 57.2202 88.79C56.1702 88.265 55.3768 87.5592 54.8402 86.6725C54.3035 85.7858 54.0352 84.8058 54.0352 83.7325C54.0352 82.7175 54.3152 81.8425 54.8752 81.1075C55.4352 80.3608 56.2635 79.7833 57.3602 79.375C58.4685 78.9667 59.8277 78.7625 61.4377 78.7625C62.4177 78.7625 63.281 78.815 64.0277 78.92C64.786 79.025 65.5618 79.1533 66.3552 79.305V82.455C65.7718 82.3267 65.1652 82.2275 64.5352 82.1575C63.9168 82.0875 63.3102 82.0525 62.7152 82.0525C61.8868 82.0525 61.2277 82.1867 60.7377 82.455C60.2593 82.7117 60.0202 83.1375 60.0202 83.7325C60.0202 84.1642 60.236 84.5433 60.6677 84.87C61.0993 85.185 61.7818 85.3425 62.7152 85.3425C63.5085 85.3425 64.1327 85.185 64.5877 84.87C65.0427 84.555 65.3635 84.1583 65.5502 83.68C65.7368 83.2017 65.8302 82.7292 65.8302 82.2625H67.1427C67.1427 83.5925 66.9327 84.8117 66.5127 85.92C66.0927 87.0283 65.4393 87.915 64.5527 88.58C63.666 89.2333 62.5227 89.56 61.1227 89.56ZM83.3509 89.56C82.2543 89.56 81.2276 89.3617 80.2709 88.965C79.3259 88.5683 78.5618 87.95 77.9784 87.11C77.4068 86.2583 77.1209 85.1675 77.1209 83.8375V67.405H82.7559V83.6275C82.7559 84.6775 83.2751 85.2025 84.3134 85.2025C84.6401 85.2025 84.9843 85.1675 85.3459 85.0975C85.7193 85.0158 86.1509 84.8875 86.6409 84.7125L87.4634 88.615C86.7518 88.8717 86.0693 89.0933 85.4159 89.28C84.7743 89.4667 84.0859 89.56 83.3509 89.56ZM75.0734 75.385V71.7625H86.6759V75.385H75.0734ZM102.778 89L102.061 84.3975V77.94C102.061 77.0767 101.903 76.4058 101.588 75.9275C101.273 75.4492 100.602 75.21 99.5756 75.21C98.969 75.21 98.4731 75.3033 98.0881 75.49C97.7148 75.665 97.4348 75.9042 97.2481 76.2075C97.0731 76.4992 96.9856 76.82 96.9856 77.17H90.9306C90.9306 75.8167 91.2515 74.7025 91.8931 73.8275C92.5348 72.9408 93.4973 72.2817 94.7806 71.85C96.064 71.4183 97.6623 71.2025 99.5756 71.2025C101.244 71.2025 102.679 71.4592 103.881 71.9725C105.094 72.4858 106.027 73.2558 106.681 74.2825C107.334 75.3092 107.661 76.5983 107.661 78.15V89H102.778ZM97.3531 89.56C95.8131 89.56 94.5123 89.3033 93.4506 88.79C92.4006 88.265 91.6073 87.5592 91.0706 86.6725C90.534 85.7858 90.2656 84.8058 90.2656 83.7325C90.2656 82.7175 90.5456 81.8425 91.1056 81.1075C91.6656 80.3608 92.494 79.7833 93.5906 79.375C94.699 78.9667 96.0581 78.7625 97.6681 78.7625C98.6481 78.7625 99.5115 78.815 100.258 78.92C101.016 79.025 101.792 79.1533 102.586 79.305V82.455C102.002 82.3267 101.396 82.2275 100.766 82.1575C100.147 82.0875 99.5406 82.0525 98.9456 82.0525C98.1173 82.0525 97.4581 82.1867 96.9681 82.455C96.4898 82.7117 96.2506 83.1375 96.2506 83.7325C96.2506 84.1642 96.4665 84.5433 96.8981 84.87C97.3298 85.185 98.0123 85.3425 98.9456 85.3425C99.739 85.3425 100.363 85.185 100.818 84.87C101.273 84.555 101.594 84.1583 101.781 83.68C101.967 83.2017 102.061 82.7292 102.061 82.2625H103.373C103.373 83.5925 103.163 84.8117 102.743 85.92C102.323 87.0283 101.67 87.915 100.783 88.58C99.8965 89.2333 98.7531 89.56 97.3531 89.56Z" fill="#454444"/>
</g>
</g>
<defs>
<filter id="filter0_d_2_37" x="11.9395" y="11.9373" width="136.958" height="51.9937" filterUnits="userSpaceOnUse" color-interpolation-filters="sRGB">
<feFlood flood-opacity="0" result="BackgroundImageFix"/>
<feColorMatrix in="SourceAlpha" type="matrix" values="0 0 0 0 0 0 0 0 0 0 0 0 0 0 0 0 0 0 127 0" result="hardAlpha"/>
<feOffset dy="2"/>
<feGaussianBlur stdDeviation="2"/>
<feComposite in2="hardAlpha" operator="out"/>
<feColorMatrix type="matrix" values="0 0 0 0 0 0 0 0 0 0 0 0 0 0 0 0 0 0 0.25 0"/>
<feBlend mode="normal" in2="BackgroundImageFix" result="effect1_dropShadow_2_37"/>
<feBlend mode="normal" in="SourceGraphic" in2="effect1_dropShadow_2_37" result="shape"/>
</filter>
<filter id="filter1_d_2_37" x="27.4875" y="62.85" width="84.1731" height="32.71" filterUnits="userSpaceOnUse" color-interpolation-filters="sRGB">
<feFlood flood-opacity="0" result="BackgroundImageFix"/>
<feColorMatrix in="SourceAlpha" type="matrix" values="0 0 0 0 0 0 0 0 0 0 0 0 0 0 0 0 0 0 127 0" result="hardAlpha"/>
<feOffset dy="2"/>
<feGaussianBlur stdDeviation="2"/>
<feComposite in2="hardAlpha" operator="out"/>
<feColorMatrix type="matrix" values="0 0 0 0 0 0 0 0 0 0 0 0 0 0 0 0 0 0 0.25 0"/>
<feBlend mode="normal" in2="BackgroundImageFix" result="effect1_dropShadow_2_37"/>
<feBlend mode="normal" in="SourceGraphic" in2="effect1_dropShadow_2_37" result="shape"/>
</filter>
<clipPath id="clip0_2_37">
<rect width="157" height="106" fill="white"/>
</clipPath>
</defs>
</svg>
