<?xml version="1.0" encoding="UTF-8" standalone="no"?>
<!-- Generator: Adobe Illustrator 23.0.1, SVG Export Plug-In . SVG Version: 6.00 Build 0)  -->

<svg
   version="1.1"
   id="Ebene_1"
   x="0px"
   y="0px"
   viewBox="0 0 1366 768"
   style="enable-background:new 0 0 1366 768;"
   xml:space="preserve"
   xmlns="http://www.w3.org/2000/svg"
   xmlns:svg="http://www.w3.org/2000/svg"><defs
   id="defs47" />
<style
   type="text/css"
   id="style2">
	.st0{fill:#34373F;}
</style>
<g
   id="fp1">
	<path
   class="st0"
   d="M 2.12064 2.21568 C 2.48736 2.20482 2.7805 2.19638 3.00005 2.19035 C 3.46328 2.17708 3.29801 -0.00515408 2.59593 0.0696378 C 2.00966 0.13116 1.65742 2.23016 2.12064 2.21568 Z"
   id="path34" />
	<path
   class="st0"
   d="M 2.10737 2.47625 C 2.25937 2.47142 2.94335 2.44971 3.01935 2.44729 C 3.17135 2.44247 3.09052 3.19521 3.01211 3.38461 C 2.9325 3.58003 2.22559 3.51489 2.14959 3.42321 C 2.03138 3.27966 1.95538 2.48107 2.10737 2.47625 Z"
   id="path36" />
	<path
   class="st0"
   d="M 0.309957 3.4027 C 0.676678 3.38461 0.969814 3.37134 1.19057 3.36048 C 1.655 3.33756 1.32809 1.1698 0.629631 1.25786 C 0.0445662 1.33024 -0.154477 3.42441 0.309957 3.4027 Z"
   id="path38" />
	<path
   class="st0"
   d="M 0.303925 3.67895 C 0.455921 3.67171 1.14111 3.63914 1.21711 3.63552 C 1.36911 3.62828 1.33895 4.36534 1.27501 4.55232 C 1.20867 4.74533 0.494524 4.69226 0.412494 4.60419 C 0.282211 4.46426 0.151929 3.68619 0.303925 3.67895 Z"
   id="path40" />
</g>
<g
   id="fp2">
	<path
   class="st0"
   d="M 2.57663 2.75491 C 2.90113 2.68856 3.16049 2.63669 3.35591 2.59688 C 3.76606 2.51364 3.11948 0.172175 2.50908 0.356742 C 1.9988 0.511151 2.16528 2.83814 2.57663 2.75491 Z"
   id="path4" />
	<path
   class="st0"
   d="M 2.62006 3.00582 C 2.75517 2.97808 3.36074 2.85503 3.42829 2.84176 C 3.5634 2.81402 3.62854 3.48232 3.59477 3.65965 C 3.55978 3.8418 2.91681 3.89247 2.83237 3.82491 C 2.69968 3.71634 2.48495 3.03236 2.62006 3.00582 Z"
   id="path6" />
	<path
   class="st0"
   d="M 0.389574 3.1168 C 0.714074 3.18315 0.973433 3.23623 1.16765 3.27604 C 1.5778 3.35927 1.88903 0.993679 1.25451 0.924919 C 0.727343 0.867015 -0.0205751 3.03357 0.389574 3.1168 Z"
   id="path8" />
	<path
   class="st0"
   d="M 0.309957 3.4027 C 0.445064 3.43045 1.05064 3.55349 1.11819 3.56797 C 1.2533 3.59571 1.05184 4.23627 0.951719 4.38585 C 0.847975 4.54026 0.236371 4.33519 0.185706 4.23989 C 0.104882 4.08789 0.174849 3.37495 0.309957 3.4027 Z"
   id="path10" />
</g>
<g
   id="fp3">
	<path
   class="st0"
   d="M 2.36046 3.01764 C 2.68134 3.10208 2.93708 3.16843 3.12889 3.2191 C 3.53421 3.32525 3.94315 1.09959 3.31586 0.992231 C 2.79232 0.902964 1.95514 2.91149 2.36046 3.01764 Z"
   id="path14" />
	<path
   class="st0"
   d="M 2.2917 3.16723 C 2.42439 3.20221 3.02273 3.35903 3.08908 3.37713 C 3.22177 3.41211 2.98654 4.0406 2.87676 4.18415 C 2.76458 4.33253 2.16504 4.09368 2.1204 3.99597 C 2.04923 3.84035 2.159 3.13224 2.2917 3.16723 Z"
   id="path16" />
	<path
   class="st0"
   d="M 0.739165 3.15396 C 1.06367 3.08761 1.32302 3.03453 1.51724 2.99472 C 1.92739 2.91028 1.30975 0.732872 0.69815 0.915027 C 0.19029 1.06702 0.329016 3.2384 0.739165 3.15396 Z"
   id="path18" />
	<path
   class="st0"
   d="M 0.777768 3.30233 C 0.912875 3.27459 1.51845 3.15034 1.586 3.13707 C 1.72111 3.10932 1.78746 3.77762 1.75368 3.95495 C 1.7187 4.13831 1.07573 4.18898 0.992492 4.12143 C 0.858591 4.01286 0.643866 3.32887 0.777768 3.30233 Z"
   id="path20" />
</g>
<g
   id="fp4">
	<path
   class="st0"
   d="M 2.2917 3.16723 C 2.61861 3.22151 2.87918 3.26494 3.07581 3.29751 C 3.48957 3.36627 3.69224 1.11166 3.05771 1.0622 C 2.52814 1.02118 1.87914 3.09847 2.2917 3.16723 Z"
   id="path24" />
	<path
   class="st0"
   d="M 2.21691 3.57617 C 2.35202 3.59909 2.96241 3.70042 3.02997 3.71128 C 3.16507 3.7342 2.98775 4.38078 2.89245 4.53399 C 2.79473 4.69201 2.17589 4.50986 2.12161 4.41577 C 2.03717 4.2686 2.0818 3.55325 2.21691 3.57617 Z"
   id="path26" />
	<path
   class="st0"
   d="M 0.620946 2.44223 C 0.94424 2.36864 1.20239 2.31074 1.3954 2.26611 C 1.80435 2.17322 1.13966 0.0090805 0.532885 0.204504 C 0.0274365 0.366151 0.212003 2.53391 0.620946 2.44223 Z"
   id="path28" />
	<path
   class="st0"
   d="M 0.690912 2.85238 C 0.824814 2.82222 1.42797 2.6847 1.49553 2.67022 C 1.62943 2.64006 1.71025 3.30595 1.68009 3.48449 C 1.64873 3.66785 1.00817 3.73299 0.922526 3.66664 C 0.787418 3.56169 0.557011 2.88253 0.690912 2.85238 Z"
   id="path30" />
</g>
</svg>
